<?xml version="1.0" encoding="utf-8"?>
<!-- Generator: Adobe Illustrator 23.0.0, SVG Export Plug-In . SVG Version: 6.00 Build 0)  -->
<svg version="1.1" id="Livello_1" xmlns="http://www.w3.org/2000/svg" xmlns:xlink="http://www.w3.org/1999/xlink" x="0px" y="0px"
	 viewBox="0 0 16 16" style="enable-background:new 0 0 16 16;" xml:space="preserve">
<style type="text/css">
	.st0{fill:#D8223B;}
</style>
<g>
	<path class="st0" d="M3.4,3.1c0.5,0,1,0.1,1.5,0.2C5.3,3.5,5.7,3.7,6,3.8v1.9C5.7,5.6,5.3,5.4,5,5.2C4.6,5,4.1,4.9,3.6,4.9
		C3.4,4.9,3.2,5,2.9,5C2.7,5.1,2.5,5.2,2.3,5.4C2.2,5.5,2.1,5.7,2.1,6c0,0.3,0.1,0.5,0.4,0.7c0.3,0.2,0.6,0.3,1,0.5l1.2,0.5
		c0.7,0.3,1.1,0.6,1.5,1C6.4,9.1,6.6,9.5,6.6,10c0,0.6-0.2,1.1-0.5,1.5c-0.3,0.4-0.8,0.8-1.3,1c-0.5,0.2-1.1,0.4-1.8,0.4
		c-0.6,0-1.1-0.1-1.6-0.3c-0.5-0.2-0.9-0.4-1.3-0.7V10c0.4,0.3,0.9,0.6,1.4,0.8c0.5,0.2,1,0.3,1.6,0.3c0.4,0,0.7-0.1,1-0.2
		c0.3-0.2,0.4-0.4,0.4-0.7c0-0.2-0.1-0.4-0.3-0.6C3.9,9.4,3.6,9.3,3.4,9.1L1.9,8.6C1.2,8.3,0.7,7.9,0.4,7.5C0.2,7,0,6.5,0,6
		c0-0.6,0.2-1.1,0.5-1.5c0.3-0.4,0.7-0.8,1.2-1S2.8,3.1,3.4,3.1z"/>
	<path class="st0" d="M12.4,3.3c0.4,0,0.9,0.1,1.3,0.2c0.4,0.2,0.8,0.4,1.1,0.7c0.3,0.3,0.6,0.6,0.8,1.1C15.9,5.6,16,6.1,16,6.6
		c0,0.6-0.2,1.2-0.5,1.7c-0.3,0.5-0.8,0.9-1.3,1.2c-0.5,0.3-1.1,0.4-1.7,0.4c-0.4,0-0.8,0-1.1-0.1c-0.3-0.1-0.6-0.2-0.8-0.3v3.2h-2
		V3.3H12.4z M10.4,5.1v2.8c0.2,0.1,0.5,0.2,0.8,0.2c0.3,0.1,0.6,0.1,0.9,0.1c0.6,0,1-0.2,1.3-0.5c0.3-0.3,0.5-0.7,0.5-1.1
		c0-0.5-0.2-0.9-0.6-1.1c-0.4-0.3-0.8-0.4-1.3-0.4H10.4z"/>
</g>
</svg>
