<?xml version="1.0" encoding="utf-8"?>
<!-- Generator: Adobe Illustrator 23.0.0, SVG Export Plug-In . SVG Version: 6.00 Build 0)  -->
<svg version="1.1" id="Livello_1" xmlns="http://www.w3.org/2000/svg" xmlns:xlink="http://www.w3.org/1999/xlink" x="0px" y="0px"
	 viewBox="0 0 24 24" style="enable-background:new 0 0 24 24;" xml:space="preserve">
<g>
	<g>
		<g>
			<polygon points="12.4,8.6 12.4,12.9 16.1,15 16.7,14 13.7,12.2 13.7,8.6 			"/>
			<path d="M13.3,4.3C9,4.3,5.6,7.7,5.6,12H3l3.3,3.3l0.1,0.1L9.9,12H7.3c0-3.3,2.7-6,6-6s6,2.7,6,6s-2.7,6-6,6
				c-1.7,0-3.2-0.7-4.2-1.8l-1.2,1.2c1.4,1.4,3.3,2.3,5.4,2.3c4.3,0,7.7-3.5,7.7-7.7S17.5,4.3,13.3,4.3z"/>
		</g>
	</g>
</g>
</svg>
