<?xml version="1.0" encoding="utf-8"?>
<!-- Generator: Adobe Illustrator 23.0.0, SVG Export Plug-In . SVG Version: 6.00 Build 0)  -->
<svg version="1.1" id="Livello_1" xmlns="http://www.w3.org/2000/svg" xmlns:xlink="http://www.w3.org/1999/xlink" x="0px" y="0px"
	 viewBox="0 0 24 24" style="enable-background:new 0 0 24 24;" xml:space="preserve">
<g>
	<path d="M13.5,7.9c0,2.1-1.7,3.7-3.8,3.7S6,9.9,6,7.9s1.7-3.8,3.8-3.8S13.5,5.8,13.5,7.9z"/>
	<path d="M12.9,13.1H6.6c-2,0-3.6,1.6-3.6,3.6v2.6c0,0.3,0.3,0.6,0.6,0.6h12.4c0.3,0,0.6-0.3,0.6-0.6v-2.6
		C16.5,14.7,14.9,13.1,12.9,13.1z"/>
	<path d="M20.8,10.5L18.2,8c-0.1-0.1-0.2-0.1-0.4-0.1c-0.4,0-0.6,0.3-0.6,0.6v1.7h-3c-0.4,0-0.7,0.3-0.7,0.7s0.3,0.7,0.7,0.7h3v1.7
		c0,0.3,0.3,0.6,0.6,0.6c0.1,0,0.3-0.1,0.4-0.1l2.6-2.4c0.1-0.1,0.2-0.3,0.2-0.4S20.9,10.6,20.8,10.5z"/>
</g>
</svg>
