<?xml version="1.0" encoding="utf-8"?>
<!-- Generator: Adobe Illustrator 23.0.0, SVG Export Plug-In . SVG Version: 6.00 Build 0)  -->
<svg version="1.1" id="Livello_1" xmlns="http://www.w3.org/2000/svg" xmlns:xlink="http://www.w3.org/1999/xlink" x="0px" y="0px"
	 viewBox="0 0 24 24" style="enable-background:new 0 0 24 24;" xml:space="preserve">
<g>
	<g>
		<g>
			<path d="M13.2,3h-6C6.4,3,5.7,3.7,5.7,4.5v10.8c0,0.8,0.7,1.5,1.5,1.5h5.4v-0.6H7.2c-0.5,0-0.9-0.4-0.9-0.9V4.5
				c0-0.5,0.4-0.9,0.9-0.9h6c0.5,0,0.9,0.4,0.9,0.9v8.7h0.6V4.5C14.7,3.7,14,3,13.2,3z"/>
		</g>
	</g>
	<g>
		<g>
			<path d="M17.6,11l-2.9-3.7l-0.5,0.4l2.9,3.7c0.4,0.5,0.6,1.1,0.6,1.7v7.3h-4.4c-1.5,0-2.8-1.3-2.8-2.8v-1.1H9.9v1.1
				c0,1.9,1.5,3.4,3.4,3.4H18c0.2,0,0.3-0.1,0.3-0.3v-7.6C18.3,12.3,18,11.6,17.6,11z"/>
		</g>
	</g>
	<g>
		<g>
			<path d="M10.8,10.1c0.2,0,0.4,0.1,0.6,0.2l4,4.3l0.4-0.4l-4-4.3c-0.3-0.3-0.6-0.4-1-0.4c-0.4,0-0.7,0.1-1,0.4c0,0,0,0,0,0
				c-0.5,0.5-0.5,1.3-0.1,1.9l2.6,3.1v0.9c0,1.7,1,3.2,2.6,3.7l0.2-0.6c-1.3-0.5-2.2-1.8-2.2-3.2v-1c0-0.1,0-0.1-0.1-0.2l-2.7-3.1
				c-0.3-0.3-0.2-0.8,0.1-1.1C10.4,10.1,10.6,10.1,10.8,10.1z"/>
		</g>
	</g>
	<g>
		<g>
			<rect x="12.3" y="3.6" width="0.6" height="7.5"/>
		</g>
	</g>
	<g>
		<g>
			<rect x="10.8" y="12.9" width="0.6" height="3.6"/>
		</g>
	</g>
	<g>
		<g>
			<rect x="10.8" y="3.3" width="0.6" height="6.6"/>
		</g>
	</g>
	<g>
		<g>
			<rect x="7.2" y="4.5" width="0.6" height="3.9"/>
		</g>
	</g>
	<g>
		<g>
			<rect x="8.7" y="4.5" width="0.6" height="2.4"/>
		</g>
	</g>
	<g>
		<g>
			<path d="M9.3,12.9H7.5c-0.2,0-0.3,0.1-0.3,0.3V15c0,0.2,0.1,0.3,0.3,0.3h1.8c0.2,0,0.3-0.1,0.3-0.3v-1.8
				C9.6,13,9.5,12.9,9.3,12.9z M9,14.7H7.8v-1.2H9V14.7z"/>
		</g>
	</g>
</g>
</svg>
