<?xml version="1.0" encoding="utf-8"?>
<!-- Generator: Adobe Illustrator 23.0.0, SVG Export Plug-In . SVG Version: 6.00 Build 0)  -->
<svg version="1.1" id="Livello_1" xmlns="http://www.w3.org/2000/svg" xmlns:xlink="http://www.w3.org/1999/xlink" x="0px" y="0px"
	 viewBox="0 0 24 24" style="enable-background:new 0 0 24 24;" xml:space="preserve">
<g>
	<g>
		<path d="M13,4.6H8c-0.1,0-0.3,0.1-0.3,0.3S7.9,5.1,8,5.1h5c0.1,0,0.3-0.1,0.3-0.3S13.2,4.6,13,4.6z"/>
		<path d="M13,6.2H8c-0.1,0-0.3,0.1-0.3,0.3S7.9,6.7,8,6.7h5c0.1,0,0.3-0.1,0.3-0.3S13.2,6.2,13,6.2z"/>
		<path d="M8.5,16.5H7.2c-0.1,0-0.3,0.1-0.3,0.3S7.1,17,7.2,17h1.3c0.1,0,0.3-0.1,0.3-0.3S8.6,16.5,8.5,16.5z"/>
		<path d="M11.2,16.5H9.9c-0.1,0-0.3,0.1-0.3,0.3S9.7,17,9.9,17h1.3c0.1,0,0.3-0.1,0.3-0.3S11.3,16.5,11.2,16.5z"/>
		<path d="M13.8,16.5h-1.3c-0.1,0-0.3,0.1-0.3,0.3s0.1,0.3,0.3,0.3h1.3c0.1,0,0.3-0.1,0.3-0.3S14,16.5,13.8,16.5z"/>
		<path d="M8.5,17.7H7.2C7.1,17.7,7,17.8,7,18s0.1,0.3,0.3,0.3h1.3c0.1,0,0.3-0.1,0.3-0.3S8.6,17.7,8.5,17.7z"/>
		<path d="M11.2,17.7H9.9c-0.1,0-0.3,0.1-0.3,0.3s0.1,0.3,0.3,0.3h1.3c0.1,0,0.3-0.1,0.3-0.3S11.3,17.7,11.2,17.7z"/>
		<path d="M13.8,17.7h-1.3c-0.1,0-0.3,0.1-0.3,0.3s0.1,0.3,0.3,0.3h1.3c0.1,0,0.3-0.1,0.3-0.3S14,17.7,13.8,17.7z"/>
		<path d="M8.5,18.9H7.2C7.1,18.9,7,19,7,19.1s0.1,0.3,0.3,0.3h1.3c0.1,0,0.3-0.1,0.3-0.3S8.6,18.9,8.5,18.9z"/>
		<path d="M11.2,18.9H9.9c-0.1,0-0.3,0.1-0.3,0.3s0.1,0.3,0.3,0.3h1.3c0.1,0,0.3-0.1,0.3-0.3S11.3,18.9,11.2,18.9z"/>
		<path d="M13.8,18.9h-1.3c-0.1,0-0.3,0.1-0.3,0.3s0.1,0.3,0.3,0.3h1.3c0.1,0,0.3-0.1,0.3-0.3S14,18.9,13.8,18.9z"/>
		<path d="M14.6,9.9c0-0.3-0.2-0.5-0.5-0.5H7c-0.3,0-0.5,0.2-0.5,0.5v0.8c0,0.1,0.1,0.3,0.3,0.3C6.8,11,7,10.8,7,10.7V9.9
			c0,0,0,0,0,0h7.1c0,0,0,0,0,0v2.8c0,0,0,0,0,0H7c0,0,0,0,0,0v-0.8c0-0.1-0.1-0.3-0.3-0.3s-0.3,0.1-0.3,0.3v0.8
			c0,0.3,0.2,0.5,0.5,0.5h7.1c0.3,0,0.5-0.2,0.5-0.5L14.6,9.9L14.6,9.9z"/>
		<path d="M8.9,14.4c0-0.3-0.2-0.5-0.5-0.5H7c-0.3,0-0.6,0.3-0.5,0.6l0.2,0.7c0.1,0.2,0.3,0.4,0.5,0.4h1.1c0.3,0,0.5-0.2,0.5-0.5
			V14.4z M7.2,15.1L7,14.4l1.3,0l0,0.7L7.2,15.1z"/>
		<path d="M11.7,15.1v-0.7c0-0.3-0.2-0.5-0.5-0.5H9.8c-0.3,0-0.5,0.2-0.5,0.5v0.7c0,0.3,0.2,0.5,0.5,0.5h1.4
			C11.5,15.6,11.7,15.4,11.7,15.1z M9.8,15.1l0-0.7l1.4,0l0,0.7L9.8,15.1z"/>
		<path d="M14.3,15.2l0.2-0.7c0.1-0.3-0.2-0.6-0.5-0.6h-1.3c-0.3,0-0.5,0.2-0.5,0.5v0.7c0,0.3,0.2,0.5,0.5,0.5h1.1
			C14.1,15.6,14.3,15.5,14.3,15.2z M13.8,15.1l-1.1,0l0-0.7l1.3,0L13.8,15.1z"/>
		<path d="M18.3,5.5h-1.4V4.3c0,0,0,0,0,0c0-0.7-0.6-1.3-1.3-1.3c0,0,0,0,0,0H7.8C7,3,6.3,3.6,6.3,4.4v2.3C5.6,6.8,5,7.4,5,8.2v3.5
			c0,2,0.3,2.5,0.3,4.4v3.5C5.4,20.4,6,21,6.7,21h7.7c0.7,0,1.3-0.6,1.3-1.3v-1.1c0-0.1-0.1-0.3-0.3-0.3s-0.3,0.1-0.3,0.3v1.1
			c0,0.4-0.4,0.8-0.8,0.8H6.7c-0.4,0-0.8-0.4-0.8-0.8v-3.5c0-2-0.3-2.5-0.3-4.4V8.2c0-0.5,0.3-0.9,0.8-1v0.7c0,0.4,0.3,0.7,0.7,0.7
			h7c0.4,0,0.7-0.3,0.7-0.7V7.2c0.5,0.1,0.8,0.5,0.8,1v3.5c0,1.9-0.3,2.5-0.3,4.4v1.1c0,0.1,0.1,0.3,0.3,0.3s0.3-0.1,0.3-0.3v-1.1
			c0-1.9,0.3-2.5,0.3-4.4V9.4h1.6C18.4,9.4,19,8.8,19,8V6.2C19,5.8,18.7,5.5,18.3,5.5L18.3,5.5z M14.2,7.9C14.2,8,14.1,8,14,8H7
			C6.9,8,6.9,8,6.9,7.9V4.4c0-0.5,0.4-0.9,0.9-0.9h6.7c-0.2,0.2-0.3,0.5-0.3,0.8V7.9z M16,8.8V8.2c0-0.8-0.6-1.4-1.3-1.6V4.3
			c0-0.4,0.4-0.8,0.8-0.8c0.4,0,0.8,0.3,0.8,0.8V8c0,0.3,0.1,0.6,0.3,0.8H16z M18.5,8c0,0.5-0.4,0.8-0.8,0.8c-0.4,0-0.8-0.4-0.8-0.8
			V6h1.4c0.1,0,0.2,0.1,0.2,0.2V8z"/>
	</g>
</g>
</svg>
