<?xml version="1.0" encoding="utf-8"?>
<!-- Generator: Adobe Illustrator 23.0.0, SVG Export Plug-In . SVG Version: 6.00 Build 0)  -->
<svg version="1.1" id="Livello_1" xmlns="http://www.w3.org/2000/svg" xmlns:xlink="http://www.w3.org/1999/xlink" x="0px" y="0px"
	 viewBox="0 0 24 24" style="enable-background:new 0 0 24 24;" xml:space="preserve">
<g>
	<g>
		<g>
			<path d="M3,3v6h6V3H3z M7.6,7.6H4.4V4.4h3.2V7.6z"/>
		</g>
	</g>
	<g>
		<g>
			<rect x="5.3" y="5.3" width="1.4" height="1.4"/>
		</g>
	</g>
	<g>
		<g>
			<path d="M15,3v6h6V3H15z M19.6,7.6h-3.2V4.4h3.2V7.6z"/>
		</g>
	</g>
	<g>
		<g>
			<rect x="17.3" y="5.3" width="1.4" height="1.4"/>
		</g>
	</g>
	<g>
		<g>
			<path d="M3,15v6h6v-6H3z M7.6,19.6H4.4v-3.2h3.2V19.6z"/>
		</g>
	</g>
	<g>
		<g>
			<rect x="5.3" y="17.3" width="1.4" height="1.4"/>
		</g>
	</g>
	<g>
		<g>
			<rect x="4.4" y="9.9" width="1.4" height="1.4"/>
		</g>
	</g>
	<g>
		<g>
			<polygon points="7.2,12.7 7.2,11.3 5.8,11.3 5.8,12.7 7.2,12.7 7.2,14.1 8.6,14.1 8.6,12.7 			"/>
		</g>
	</g>
	<g>
		<g>
			<rect x="12.8" y="5.7" width="1.4" height="1.4"/>
		</g>
	</g>
	<g>
		<g>
			<rect x="10" y="4.4" width="1.4" height="2.7"/>
		</g>
	</g>
	<g>
		<g>
			<rect x="11.4" y="3" width="1.4" height="1.4"/>
		</g>
	</g>
	<g>
		<g>
			<polygon points="11.4,7.1 11.4,8.5 10,8.5 10,9.9 12.8,9.9 12.8,7.1 			"/>
		</g>
	</g>
	<g>
		<g>
			<polygon points="12.8,15.5 12.8,14.1 11.4,14.1 11.4,11.3 10,11.3 10,14.1 11.4,14.1 11.4,15.5 12.8,15.5 12.8,16.9 15.7,16.9 
				15.7,15.5 			"/>
		</g>
	</g>
	<g>
		<g>
			<rect x="12.8" y="9.9" width="1.4" height="2.8"/>
		</g>
	</g>
	<g>
		<g>
			<path d="M19.6,11.3V9.9H17v1.4h-1.4v1.4h1.4v1.4H21v-2.8H19.6z M19.6,12.7h-2.5v-1.4h2.5V12.7z"/>
		</g>
	</g>
	<g>
		<g>
			<rect x="19.6" y="15.5" width="1.4" height="2.8"/>
		</g>
	</g>
	<g>
		<g>
			<rect x="14.3" y="12.7" width="1.4" height="1.4"/>
		</g>
	</g>
	<g>
		<g>
			<rect x="15.7" y="16.9" width="1.4" height="1.4"/>
		</g>
	</g>
	<g>
		<g>
			<rect x="17.1" y="15.5" width="1.4" height="1.4"/>
		</g>
	</g>
	<g>
		<g>
			<polygon points="17.1,18.3 17.1,21 18.5,21 18.5,19.7 19.6,19.7 19.6,18.3 			"/>
		</g>
	</g>
	<g>
		<g>
			<rect x="10" y="15.5" width="1.4" height="2.7"/>
		</g>
	</g>
	<g>
		<g>
			<polygon points="14.3,19.6 14.3,18.2 11.4,18.2 11.4,21 12.8,21 12.8,19.6 14.2,19.6 14.2,21 15.6,21 15.6,19.6 			"/>
		</g>
	</g>
	<g>
		<g>
			<rect x="7.2" y="9.9" width="2.8" height="1.4"/>
		</g>
	</g>
	<g>
		<g>
			<rect x="3" y="11.3" width="1.4" height="2.8"/>
		</g>
	</g>
</g>
</svg>
