<?xml version="1.0" encoding="utf-8"?>
<!-- Generator: Adobe Illustrator 23.0.0, SVG Export Plug-In . SVG Version: 6.00 Build 0)  -->
<svg version="1.1" id="Livello_1" xmlns="http://www.w3.org/2000/svg" xmlns:xlink="http://www.w3.org/1999/xlink" x="0px" y="0px"
	 viewBox="0 0 24 24" style="enable-background:new 0 0 24 24;" xml:space="preserve">
<g>
	<g>
		<g>
			<path d="M18.4,15.7c-0.5,0-1-0.3-1.3-0.7l-0.7-1c-0.6,1.4-1.9,2.4-3.4,2.7c0,0,0,0,0,0c-0.6,0.1-1.2,0.1-1.8,0
				c-1.7-0.3-3-1.5-3.6-3.1h0.3c0.4,0,0.7-0.5,0.4-0.8L6.1,9.6c-0.2-0.3-0.7-0.3-0.9,0l-2.1,3.2c-0.2,0.3,0,0.8,0.4,0.8h0.7
				c0.7,3.5,3.9,6.3,7.8,6.3c2.1,0,4.2-0.9,5.8-2.5c0.5-0.6,1-1.2,1.3-1.9C18.9,15.6,18.6,15.7,18.4,15.7z"/>
		</g>
	</g>
	<g>
		<g>
			<path d="M20.5,10.4h-0.7c-0.8-4-4.7-6.8-8.9-6.3C8.2,4.6,6,6.3,4.9,8.5C5.6,8.2,6.5,8.3,7,9l0.7,1C8.3,8.7,9.5,7.7,11,7.4
				c2.5-0.5,4.8,0.8,5.5,3h-0.3c-0.4,0-0.7,0.5-0.4,0.8l2.1,3.2c0.2,0.3,0.7,0.3,0.9,0l2.1-3.2C21.1,10.9,20.9,10.4,20.5,10.4z"/>
		</g>
	</g>
	<g>
		<g>
			<path d="M13.1,11.9c-0.3-0.3-0.7-0.5-1.1-0.5c-0.1,0-0.3-0.1-0.4-0.2c-0.2-0.2-0.2-0.5,0-0.7c0.2-0.2,0.5-0.2,0.7,0
				c0.2,0.2,0.5,0.2,0.7,0c0.2-0.2,0.2-0.5,0-0.7c-0.2-0.2-0.4-0.3-0.6-0.4V8.8c0-0.3-0.2-0.5-0.5-0.5s-0.5,0.2-0.5,0.5v0.6
				c-0.2,0.1-0.4,0.2-0.6,0.3c-0.6,0.6-0.6,1.6,0,2.2c0.3,0.3,0.7,0.5,1.1,0.5c0.1,0,0.3,0.1,0.4,0.2c0.2,0.2,0.2,0.5,0,0.7
				c-0.2,0.2-0.5,0.2-0.7,0c-0.2-0.2-0.5-0.2-0.7,0c-0.2,0.2-0.2,0.5,0,0.7c0.2,0.2,0.4,0.3,0.6,0.4v0.6c0,0.3,0.2,0.5,0.5,0.5
				s0.5-0.2,0.5-0.5v-0.6c0.2-0.1,0.4-0.2,0.6-0.4C13.7,13.6,13.7,12.6,13.1,11.9z"/>
		</g>
	</g>
</g>
</svg>
